<?xml version="1.0" encoding="UTF-8" standalone="no"?>
<!-- Generator: Adobe Illustrator 24.2.1, SVG Export Plug-In . SVG Version: 6.00 Build 0)  -->

<svg
   xmlns:dc="http://purl.org/dc/elements/1.1/"
   xmlns:cc="http://creativecommons.org/ns#"
   xmlns:rdf="http://www.w3.org/1999/02/22-rdf-syntax-ns#"
   xmlns:svg="http://www.w3.org/2000/svg"
   xmlns="http://www.w3.org/2000/svg"
   xmlns:sodipodi="http://sodipodi.sourceforge.net/DTD/sodipodi-0.dtd"
   xmlns:inkscape="http://www.inkscape.org/namespaces/inkscape"
   version="1.1"
   id="Layer_1"
   x="0px"
   y="0px"
   viewBox="0 0 1366 360"
   xml:space="preserve"
   sodipodi:docname="logo.svg"
   width="1366"
   height="360"
   inkscape:version="0.92.3 (2405546, 2018-03-11)"><metadata
   id="metadata948"><rdf:RDF><cc:Work
       rdf:about=""><dc:format>image/svg+xml</dc:format><dc:type
         rdf:resource="http://purl.org/dc/dcmitype/StillImage" /><dc:title></dc:title></cc:Work></rdf:RDF></metadata><defs
   id="defs946" /><sodipodi:namedview
   pagecolor="#ffffff"
   bordercolor="#666666"
   borderopacity="1"
   objecttolerance="10"
   gridtolerance="10"
   guidetolerance="10"
   inkscape:pageopacity="0"
   inkscape:pageshadow="2"
   inkscape:window-width="1918"
   inkscape:window-height="2132"
   id="namedview944"
   showgrid="false"
   scale-x="2"
   inkscape:zoom="0.94216691"
   inkscape:cx="683"
   inkscape:cy="180"
   inkscape:window-x="0"
   inkscape:window-y="26"
   inkscape:window-maximized="0"
   inkscape:current-layer="Layer_1" />
<style
   type="text/css"
   id="style892">
	.st0{fill:#A4B3BA;}
	.st1{fill:url(#SVGID_1_);}
	.st2{fill:none;stroke:#E42528;stroke-width:2;stroke-miterlimit:10;}
	.st3{fill:url(#SVGID_2_);}
	.st4{fill:url(#SVGID_3_);}
</style>
<g
   id="g941">
	<g
   id="g906">
		<path
   class="st0"
   d="m 393.7,269.85 h 106.25 c 17.71,0 24.62,-6.91 24.62,-19.87 0,-38.01 -130.87,-23.32 -130.87,-95.03 0,-36.72 25.48,-56.15 70.84,-56.15 h 89.41 v 36.28 h -95.89 c -18.57,0 -24.19,5.18 -24.63,18.14 -0.43,35.85 130.88,20.73 130.88,95.02 0,39.31 -27.64,57.88 -64.36,57.88 H 393.7 Z"
   id="path894"
   inkscape:connector-curvature="0"
   style="fill:#a4b3ba" />
		<path
   class="st0"
   d="m 662.53,233.56 -15.55,-30.23 102.37,-57.02 c -12.96,-12.96 -23.76,-19.87 -47.08,-19.87 -39.31,0 -67.82,29.37 -67.82,71.7 0,42.33 28.51,71.7 67.82,71.7 44.92,0 61.77,-26.78 69.54,-64.78 l 38.44,4.75 c -4.32,54.86 -48.38,96.33 -107.98,96.33 -57.45,0 -107.55,-44.06 -107.55,-107.99 0,-63.93 50.1,-107.98 107.55,-107.98 48.38,0 80.77,25.48 100.21,65.66 z"
   id="path896"
   inkscape:connector-curvature="0"
   style="fill:#a4b3ba" />
		<g
   id="g904">
			<path
   class="st0"
   d="M 1023.88,306.14 V 185.19 c 0,-38.88 -32.83,-58.75 -67.39,-58.75 -41.89,0 -68.24,33.26 -68.24,72.57 0,38.44 28.08,70.84 67.81,70.84 21.6,0 39.31,-12.09 52.27,-28.5 v 44.92 c -15.12,11.22 -29.81,19.87 -56.15,19.87 -59.61,0 -101.94,-49.24 -101.94,-110.15 0,-59.17 40.6,-105.82 107.12,-105.82 63.93,0 104.53,38.88 104.53,98.48 v 117.49 z"
   id="path898"
   inkscape:connector-curvature="0"
   style="fill:#a4b3ba" />
			<path
   class="st0"
   d="M 1105.52,306.14 V 3.78 h 38.01 v 302.36 z"
   id="path900"
   inkscape:connector-curvature="0"
   style="fill:#a4b3ba" />
			<path
   class="st0"
   d="m 1187.15,269.85 h 106.25 c 17.71,0 24.62,-6.91 24.62,-19.87 0,-38.01 -130.87,-23.32 -130.87,-95.03 0,-36.72 25.48,-56.15 70.84,-56.15 h 89.41 v 36.28 h -95.89 c -18.57,0 -24.19,5.18 -24.63,18.14 -0.43,35.85 130.88,20.73 130.88,95.02 0,39.31 -27.64,57.88 -64.36,57.88 h -106.25 z"
   id="path902"
   inkscape:connector-curvature="0"
   style="fill:#a4b3ba" />
		</g>
	</g>
	<g
   id="g939">
		<linearGradient
   id="SVGID_1_"
   gradientUnits="userSpaceOnUse"
   x1="391.77441"
   y1="71.755302"
   x2="22.255899"
   y2="87.821297">
			<stop
   offset="0"
   style="stop-color:#F29222"
   id="stop908" />
			<stop
   offset="0.4721"
   style="stop-color:#D3145B"
   id="stop910" />
			<stop
   offset="1"
   style="stop-color:#633188"
   id="stop912" />
		</linearGradient>
		<path
   class="st1"
   d="M 336.38,76.05 C 315.43,66.97 291.93,71.98 276.46,86.89 276.77,65.4 264.36,44.82 243.41,35.74 l -9.84,-4.27 -4.27,9.84 c -12.05,27.8 0.71,60.12 28.52,72.17 l 2.12,0.92 7.72,3.35 2.12,0.92 c 27.8,12.05 60.12,-0.71 72.17,-28.52 l 4.27,-9.84 z"
   id="path915"
   inkscape:connector-curvature="0"
   style="fill:url(#SVGID_1_)" />
		<path
   class="st2"
   d="M 84.61,238.92"
   id="path917"
   inkscape:connector-curvature="0"
   style="fill:none;stroke:#e42528;stroke-width:2;stroke-miterlimit:10" />
		<path
   class="st2"
   d="M 281.23,154.48"
   id="path919"
   inkscape:connector-curvature="0"
   style="fill:none;stroke:#e42528;stroke-width:2;stroke-miterlimit:10" />
		<linearGradient
   id="SVGID_2_"
   gradientUnits="userSpaceOnUse"
   x1="296.62109"
   y1="192.1199"
   x2="-123.9424"
   y2="192.1199">
			<stop
   offset="0"
   style="stop-color:#F29222"
   id="stop921" />
			<stop
   offset="0.4721"
   style="stop-color:#D3145B"
   id="stop923" />
			<stop
   offset="1"
   style="stop-color:#633188"
   id="stop925" />
		</linearGradient>
		<path
   class="st3"
   d="M 336.16,183.15 C 327.15,168.04 308.94,161.66 299.47,146 288.36,127.52 281.72,108.22 265.6,93.11 259.05,87.01 251.76,81.55 244.02,77 c 0,0 -52.99,-40.88 -105.61,-40.88 -10.65,0 -21.3,1.64 -31.5,5.74 0,0 29.41,5.01 56.81,19.03 -15.57,2.18 -30.68,7.28 -44.43,15.48 -26.2,15.65 -44.5,40.14 -53.52,67.63 -5.1,15.57 -7.19,32.23 -6.01,48.62 0.73,1.27 1.09,2.73 1.09,4.37 0,0.91 -0.18,1.91 -0.46,2.73 2.09,16.02 7.37,31.77 16.02,46.25 -4.28,-1.55 -8.74,-2.55 -13.2,-2.91 -17.93,-1.82 -36.33,5.28 -48.25,20.48 l -6.74,8.38 8.47,6.65 c 17.84,14.2 41.88,15.39 60.63,5.01 -5.83,20.67 0.91,43.79 18.75,57.9 l 8.47,6.65 6.65,-8.38 c 5.55,-7.01 9.1,-15.02 10.74,-23.31 2.82,-14.2 0,-29.04 -8.19,-41.24 5.19,-0.82 10.2,-3.1 14.38,-6.37 12.93,-9.92 11.65,-36.78 16.02,-51.35 1,-3.37 2.19,-6.55 3.64,-9.65 5.73,-12.84 15.02,-23.03 29.31,-27.68 13.38,-4.28 27.95,-0.45 40.79,5.46 0.64,0.27 1.18,0.55 1.82,0.82 14.57,6.83 38.78,34.59 51.8,44.06 9.19,6.65 18.48,13.75 28.59,18.94 5.64,2.91 11.38,5.19 17.57,6.65 4.37,1 9.1,1.46 13.47,0.36 4.37,-1.18 8.38,-4.28 9.74,-8.65 0.64,-2 0.64,-4.1 0.64,-6.1 0.09,-8.56 0.18,-17.21 0.27,-25.76 0.12,-11.2 0.03,-23.13 -5.62,-32.78 z m -23.76,18.3 c -5.1,0 -9.29,-4.19 -9.29,-9.29 0,-5.19 4.19,-9.29 9.29,-9.29 5.1,0 9.29,4.1 9.29,9.29 0,5.1 -4.19,9.29 -9.29,9.29 z"
   id="path928"
   inkscape:connector-curvature="0"
   style="fill:url(#SVGID_2_)" />
		<linearGradient
   id="SVGID_3_"
   gradientUnits="userSpaceOnUse"
   x1="398.8757"
   y1="235.27319"
   x2="29.355801"
   y2="251.33929">
			<stop
   offset="0"
   style="stop-color:#F29222"
   id="stop930" />
			<stop
   offset="0.4721"
   style="stop-color:#D3145B"
   id="stop932" />
			<stop
   offset="1"
   style="stop-color:#633188"
   id="stop934" />
		</linearGradient>
		<path
   class="st4"
   d="m 300.11,249.43 c -10.11,-5.19 -19.39,-12.29 -28.59,-18.94 -13.02,-9.47 -37.24,-37.24 -51.8,-44.06 -0.64,-0.27 -1.18,-0.55 -1.82,-0.82 -5.64,12.84 -14.93,22.94 -29.22,27.59 -13.38,4.37 -28.04,0.45 -40.88,-5.37 -0.64,-0.27 -1.18,-0.55 -1.73,-0.82 C 131.5,200.09 107.29,172.32 94.36,162.86 85.16,156.21 75.79,149.2 65.77,144.01 60.12,141.1 54.3,138.73 48.11,137.36 43.74,136.27 39.1,135.81 34.73,137 c -4.37,1.18 -8.47,4.28 -9.83,8.56 -0.55,2 -0.64,4.1 -0.64,6.1 -0.09,8.65 -0.18,17.21 -0.27,25.86 -0.09,11.2 0,23.03 5.74,32.68 8.1,13.66 23.67,20.21 33.5,32.87 1.09,1.36 2.18,2.82 3.1,4.37 11.11,18.48 17.84,37.69 33.96,52.8 6.55,6.19 13.75,11.56 21.48,16.11 0,0 0.09,0 0.18,0.09 3.1,2.46 54.53,40.79 105.52,40.79 10.65,0 21.3,-1.64 31.5,-5.74 0,0 -29.41,-5.01 -56.81,-18.94 15.48,-2.18 30.59,-7.37 44.34,-15.57 26.21,-15.57 44.6,-40.06 53.61,-67.55 z M 51.57,206.28 c -5.1,0 -9.29,-4.19 -9.29,-9.29 0,-5.19 4.19,-9.29 9.29,-9.29 3.55,0 6.65,1.91 8.19,4.92 0.73,1.27 1.09,2.73 1.09,4.37 0,0.91 -0.18,1.91 -0.46,2.73 -1.08,3.83 -4.63,6.56 -8.82,6.56 z"
   id="path937"
   inkscape:connector-curvature="0"
   style="fill:url(#SVGID_3_)" />
	</g>
</g>
</svg>